<?xml version="1.0" standalone="no"?>
<!DOCTYPE svg PUBLIC "-//W3C//DTD SVG 20010904//EN"
 "http://www.w3.org/TR/2001/REC-SVG-20010904/DTD/svg10.dtd">
<svg version="1.0" xmlns="http://www.w3.org/2000/svg"
 width="250px" height="240px" viewBox="0 0 768.000000 1280.000000"
 preserveAspectRatio="xMidYMid meet">

<g transform="translate(0.000000,1280.000000) scale(0.100000,-0.100000)"
fill="#417b87" stroke="none">
<path d="M3060 9515 c-450 -63 -840 -255 -1147 -567 -135 -137 -206 -227 -299
-381 -383 -638 -379 -1426 11 -2066 284 -466 774 -807 1307 -910 152 -29 333
-41 633 -41 476 0 652 30 910 156 180 87 376 241 490 384 207 260 315 533 341
862 l7 87 331 3 331 4 64 27 c167 70 269 178 317 336 18 58 18 201 0 266 -49
185 -222 337 -413 365 -99 14 -2511 13 -2588 -1 -33 -6 -92 -26 -132 -45 -212
-101 -325 -323 -278 -549 37 -176 140 -297 320 -374 l60 -26 489 -3 489 -3 -6
-59 c-18 -167 -133 -318 -297 -387 l-65 -28 -340 -3 c-376 -4 -448 2 -590 49
-157 52 -281 134 -411 270 -76 81 -116 140 -164 242 -110 233 -124 498 -42
737 59 170 159 313 302 434 123 104 232 160 405 208 79 22 90 22 950 28 l870
5 60 24 c117 47 206 123 264 225 61 107 82 269 48 383 -53 178 -199 315 -375
352 -81 17 -1726 13 -1852 -4z"/>
</g>
</svg>
